# xmcd
#
# Track frame offsets: 
#        150
#        4246
#        20989
#        36454
#        57578
#        80914
#        98981
#        117942
#        137644
#        155950
#        180567
#        201024
#        219616
#        239499
#        256055
#        273024
#
# Disc length: 3883 seconds
#
# Revision: 5
# Processed by: cddbd v1.5.2PL0 Copyright (c) Steve Scherf et al.
# Submitted via: ExactAudioCopy v1.1
#
DISCID=f00f2910
DTITLE=Ice Cube - Raw Footage
DYEAR=2008
DGENRE=Hip-Hop
TTITLE0=What Is A Pyroclastic Flow?
TTITLE1=I Got My Locs On (Feat. Young Jeezy)
TTITLE2=It Takes A Nation
TTITLE3=Gangsta Rap Made Me Do It
TTITLE4=Hood Mentality
TTITLE5=Why Me? (Feat. Musiq Soulchild)
TTITLE6=Cold Places
TTITLE7=Jack N The Box
TTITLE8=Do Ya Thang
TTITLE9=Thank God
TTITLE10=Here He Come (Feat. Doughboy)
TTITLE11=Get Money, Spend Money, No Money
TTITLE12=Get Used To It (Feat. WC and The Game)
TTITLE13=Tomorrow
TTITLE14=Stand Tall
TTITLE15=Take Me Away (Feat. Butch Cassidy)
EXTD=YEAR: 2008
EXTT0=
EXTT1=
EXTT2=
EXTT3=
EXTT4=
EXTT5=
EXTT6=
EXTT7=
EXTT8=
EXTT9=
EXTT10=
EXTT11=
EXTT12=
EXTT13=
EXTT14=
EXTT15=
PLAYORDER=
